# xmcd
#
# Track frame offsets: 
#        150
#        17180
#        32657
#        56744
#        73281
#        92883
#        105728
#        132609
#        148921
#        160759
#        186566
#        205094
#        228961
#        242611
#        262951
#
# Disc length: 3785 seconds
#
# Revision: 0
# Processed by: cddbd v1.5.2PL0 Copyright (c) Steve Scherf et al.
# Submitted via: ExactAudioCopy v0.99pb5
#
DISCID=e00ec70f
DTITLE=Little JC - Blues Straight From The Heart
DYEAR=2007
DGENRE=Blues
TTITLE0=Temperature
TTITLE1=Who'll Will Be Next
TTITLE2=D Boogie
TTITLE3=Make A Move
TTITLE4=Dream I Had Last Night
TTITLE5=How It Looks Like
TTITLE6=Last Night
TTITLE7=Ain't Nothing New
TTITLE8=Stay In The Middle
TTITLE9=Don't You See
TTITLE10=Hot Peppers
TTITLE11=Evil Girl
TTITLE12=Further On Up The Road
TTITLE13=Mister B.
TTITLE14=You're Gonna Miss Me
EXTD=
EXTT0=
EXTT1=
EXTT2=
EXTT3=
EXTT4=
EXTT5=
EXTT6=
EXTT7=
EXTT8=
EXTT9=
EXTT10=
EXTT11=
EXTT12=
EXTT13=
EXTT14=
PLAYORDER=
